<svg xmlns="http://www.w3.org/2000/svg" viewBox="0 0 574.12 158.29"><defs><style>.cls-1{fill:#231f20;}</style></defs><title>Asset 1</title><g id="Layer_2" data-name="Layer 2"><g id="Layer_2-2" data-name="Layer 2"><path class="cls-1" d="M62.58,156.9a4,4,0,0,0,6,0s49.49-49.69,51.76-51.77c10-10,17.07-35.17.17-52.06-17.26-17.27-41.61-12.41-53.19-.83C64.08,55.48,38.77,80.8,38.77,80.8a2.43,2.43,0,0,1-3.38,0,2.33,2.33,0,0,1,0-3.33L86.72,26.07s3.36-3.3.4-6.26S81,19.53,81,19.53L29.28,71.31s-7.42,8.13,0,15.55,15.55,0,15.55,0S60.28,71.74,73.56,58.4c11.36-11.41,32-8.4,38.63-1.76,14.45,14.45,11.8,32.47,2,42.3-13.37,13.37-51.71,51.88-51.71,51.88A4.14,4.14,0,0,0,62.58,156.9Z"/><path class="cls-1" d="M53.51,147.83a4,4,0,0,0,6.05,0l51.68-51.68c5.82-5.83,12.63-21.74-1.31-35.68-7.86-7.86-23.18-8.88-33.15,1.09C71.11,67.23,48.05,90.2,48.05,90.2s-11.8,9.67-21.79-.31.09-21.51.09-21.51L78,16.69s2.53-3.44-.24-6.21-5.85,0-5.85,0L20,62.23C15.39,66.88,7.07,83,20.12,96c15.6,15.6,33.92.22,33.92.22S79.59,70.87,82.77,67.68c5.34-5.33,15.62-6.66,21.82-.46,10.41,10.42,1.76,21.18.57,22.37s-51.56,52-51.56,52S50.34,144.65,53.51,147.83Z"/><path class="cls-1" d="M44.29,138.61c3,3,6.2-.23,6.2-.23l51.56-51.55c2.51-2.51,6-10.11-.22-16.28a11.31,11.31,0,0,0-16,0c-1.55,1.54-25.31,25.15-28.71,28.54-7.8,7.81-26,13.68-39.89-.18s-7.39-32.32,0-39.71c2.45-2.45,51.74-52,51.74-52s2.36-3.26-.4-6-5.91,0-5.91,0S22,42,10.94,53C-1.13,65-6,88.35,10.94,105.25c17.5,17.51,41.77,10.78,52.43.17,8-8,28.67-28.67,28.67-28.67s2.31-1.33,3.75.11.08,3.88.08,3.88L44.39,132.19S41.31,135.62,44.29,138.61Z"/><path class="cls-1" d="M182.3,34.2c-3.21-2.89-6-3.09-7.2-3.09a5.38,5.38,0,0,0-4.17,1.48,3.84,3.84,0,0,0-1.09,2.7,3,3,0,0,0,1,2.38c1,1,2.51,1.35,5.4,2.44l3.21,1.22a17.15,17.15,0,0,1,5.84,3.27,10.68,10.68,0,0,1,3.15,8,15.35,15.35,0,0,1-3.79,10.6c-3.79,4-9.31,4.37-12.14,4.37a18.16,18.16,0,0,1-8.48-1.8,27,27,0,0,1-6.29-4.69L162.83,54a26.85,26.85,0,0,0,4,3.28,9.92,9.92,0,0,0,5.39,1.54,6.84,6.84,0,0,0,4.5-1.48,4.4,4.4,0,0,0,1.54-3.47,3.8,3.8,0,0,0-1.47-3.08,21.23,21.23,0,0,0-5-2.38l-3.53-1.22a14.32,14.32,0,0,1-6-3.4,10.54,10.54,0,0,1-2.57-7.45,13.18,13.18,0,0,1,3.72-9.64c3-3.08,6.62-3.92,10.6-3.92A20.74,20.74,0,0,1,186.73,27Z"/><path class="cls-1" d="M203.69,37.92V53.73a6.05,6.05,0,0,0,1.6,4.62,5.47,5.47,0,0,0,3.86,1.35,5.76,5.76,0,0,0,3.92-1.35,6.22,6.22,0,0,0,1.54-4.62V37.92h9.25V54.63c0,3.27-.32,6.36-3.21,9.18-3.28,3.21-8.1,3.73-11.5,3.73s-8.29-.52-11.57-3.73c-2.63-2.57-3.14-5.46-3.14-8.61V37.92Z"/><path class="cls-1" d="M240.3,81.28h-9.25V37.92h9.25v3.41A10.71,10.71,0,0,1,249.23,37a13.88,13.88,0,0,1,10.15,4,15.64,15.64,0,0,1,4.3,11.17,15.53,15.53,0,0,1-4.56,11.5,12.72,12.72,0,0,1-9.7,3.86c-5.72,0-8.16-2.89-9.12-4.24Zm1.54-34.23a7.63,7.63,0,0,0-2.18,5.26,7.43,7.43,0,0,0,2.05,5.08A7.55,7.55,0,0,0,247,59.57a7.37,7.37,0,0,0,5-2,7.88,7.88,0,0,0,2.25-5.46,7.23,7.23,0,0,0-12.34-5.07Z"/><path class="cls-1" d="M298.82,53.85H277.43a7.82,7.82,0,0,0,1.73,4.89,6.21,6.21,0,0,0,4.75,1.8,7.58,7.58,0,0,0,3.73-.84,5.55,5.55,0,0,0,2-2.38l8.74.9a12.85,12.85,0,0,1-5.53,7.2,17,17,0,0,1-9,2.12c-4.31,0-8.1-.77-11.44-4.11a15.43,15.43,0,0,1-4.3-11,16.34,16.34,0,0,1,4.37-11.31,15,15,0,0,1,11-4.11c3.21,0,7.84.58,11.37,4.3s4.05,8.1,4.05,11.63Zm-8.55-5.52A7.18,7.18,0,0,0,288.41,45a6.78,6.78,0,0,0-9.06.26,6.43,6.43,0,0,0-1.6,3.08Z"/><path class="cls-1" d="M304.6,37.92h9.25v4.5a10.25,10.25,0,0,1,3.59-4,8.84,8.84,0,0,1,4.95-1.22,9.32,9.32,0,0,1,3,.45l-.51,8.67a8.76,8.76,0,0,0-4.18-1,6,6,0,0,0-4.62,1.93c-2.06,2.18-2.25,5.27-2.25,7.71V66.57H304.6Z"/><path class="cls-1" d="M367.42,34.2c-3.21-2.89-6-3.09-7.2-3.09a5.36,5.36,0,0,0-4.17,1.48,3.81,3.81,0,0,0-1.1,2.7,3,3,0,0,0,1,2.38c1,1,2.5,1.35,5.4,2.44l3.21,1.22a17.15,17.15,0,0,1,5.84,3.27,10.68,10.68,0,0,1,3.15,8,15.35,15.35,0,0,1-3.79,10.6c-3.79,4-9.31,4.37-12.14,4.37a18.16,18.16,0,0,1-8.48-1.8,27.28,27.28,0,0,1-6.3-4.69L348,54a26.35,26.35,0,0,0,4,3.28,9.92,9.92,0,0,0,5.39,1.54,6.84,6.84,0,0,0,4.5-1.48,4.43,4.43,0,0,0,1.54-3.47,3.77,3.77,0,0,0-1.48-3.08,21,21,0,0,0-5-2.38l-3.53-1.22a14.35,14.35,0,0,1-6-3.4,10.57,10.57,0,0,1-2.56-7.45,13.18,13.18,0,0,1,3.72-9.64c3-3.08,6.62-3.92,10.6-3.92A20.74,20.74,0,0,1,371.85,27Z"/><path class="cls-1" d="M407.5,62.91c-2.57,2.57-6.94,4.63-12.53,4.63s-10-2.06-12.52-4.63a15.35,15.35,0,0,1,0-21.33C385,39,389.38,37,395,37s10,2.06,12.53,4.62a15.38,15.38,0,0,1,0,21.33ZM389.77,46.85a7.26,7.26,0,0,0-2.12,5.4,7.27,7.27,0,0,0,2.12,5.39A7.13,7.13,0,0,0,395,59.7a7,7,0,0,0,5.14-2.06,7.22,7.22,0,0,0,2.12-5.39,7.26,7.26,0,0,0-2.12-5.4,7.63,7.63,0,0,0-10.41,0Z"/><path class="cls-1" d="M427.6,45.37v21.2h-9.25V45.37H415V37.92h3.34V32.27c0-3.21.32-6.87,3.21-10a10.57,10.57,0,0,1,8-3.27,14.49,14.49,0,0,1,5.27,1v8.09A7.12,7.12,0,0,0,431.33,27a3.36,3.36,0,0,0-2.7,1.16c-1,1.35-1,3.6-1,4.95v4.81h7.33v7.45Z"/><path class="cls-1" d="M450,45.37v21.2h-9.25V45.37h-3.21V37.92h3.21V28.67H450v9.25h5.72v7.45Z"/><path class="cls-1" d="M182.3,92.2c-3.21-2.89-6-3.09-7.2-3.09a5.38,5.38,0,0,0-4.17,1.48,3.84,3.84,0,0,0-1.09,2.7,3,3,0,0,0,1,2.38c1,1,2.51,1.35,5.4,2.44l3.21,1.22a17.15,17.15,0,0,1,5.84,3.27,10.68,10.68,0,0,1,3.15,8,15.35,15.35,0,0,1-3.79,10.6c-3.79,4-9.31,4.37-12.14,4.37a18.16,18.16,0,0,1-8.48-1.8,27,27,0,0,1-6.29-4.69l5.13-7.07a26.85,26.85,0,0,0,4,3.28,9.92,9.92,0,0,0,5.39,1.54,6.84,6.84,0,0,0,4.5-1.48,4.4,4.4,0,0,0,1.54-3.47,3.8,3.8,0,0,0-1.47-3.08,21.23,21.23,0,0,0-5-2.38l-3.53-1.22a14.32,14.32,0,0,1-6-3.4,10.54,10.54,0,0,1-2.57-7.45,13.18,13.18,0,0,1,3.72-9.64c3-3.08,6.62-3.92,10.6-3.92A20.74,20.74,0,0,1,186.73,85Z"/><path class="cls-1" d="M216,105a9.3,9.3,0,0,0-6-2.18,7.38,7.38,0,0,0-5.27,2,7.56,7.56,0,0,0-2.12,5.4,7.4,7.4,0,0,0,1.93,5.14,7.61,7.61,0,0,0,5.59,2.31,9,9,0,0,0,5.91-2.25v8.35a14.33,14.33,0,0,1-7.33,1.74,15.4,15.4,0,0,1-11.11-4.31,14.94,14.94,0,0,1-4.5-10.92A15,15,0,0,1,208.7,95,16.3,16.3,0,0,1,216,96.57Z"/><path class="cls-1" d="M222.12,95.92h9.25v4.5a10.27,10.27,0,0,1,3.6-4,8.82,8.82,0,0,1,4.95-1.22,9.36,9.36,0,0,1,3,.45l-.52,8.67a8.75,8.75,0,0,0-4.17-1,6,6,0,0,0-4.63,1.93c-2.05,2.18-2.25,5.27-2.25,7.71v11.62h-9.25Z"/><path class="cls-1" d="M275.18,111.85H253.79a7.88,7.88,0,0,0,1.73,4.89,6.23,6.23,0,0,0,4.76,1.8,7.54,7.54,0,0,0,3.72-.84,5.55,5.55,0,0,0,2-2.38l8.74.9a12.8,12.8,0,0,1-5.52,7.2,17,17,0,0,1-9.06,2.12c-4.31,0-8.1-.77-11.44-4.11a15.43,15.43,0,0,1-4.3-11.05,16.34,16.34,0,0,1,4.37-11.31,15,15,0,0,1,11-4.11c3.21,0,7.84.58,11.37,4.3s4.05,8.1,4.05,11.63Zm-8.54-5.52a7.34,7.34,0,0,0-1.87-3.34,6.76,6.76,0,0,0-9,.26,6.44,6.44,0,0,0-1.61,3.08Z"/><path class="cls-1" d="M310.32,111.85h-21.4a7.83,7.83,0,0,0,1.74,4.89,6.21,6.21,0,0,0,4.75,1.8,7.61,7.61,0,0,0,3.73-.84,5.55,5.55,0,0,0,2-2.38l8.74.9a12.85,12.85,0,0,1-5.53,7.2,17,17,0,0,1-9.06,2.12c-4.3,0-8.09-.77-11.43-4.11a15.39,15.39,0,0,1-4.3-11.05,16.33,16.33,0,0,1,4.36-11.31,15,15,0,0,1,11-4.11c3.21,0,7.84.58,11.37,4.3s4.05,8.1,4.05,11.63Zm-8.55-5.52a7.18,7.18,0,0,0-1.86-3.34,6.78,6.78,0,0,0-9.06.26,6.35,6.35,0,0,0-1.6,3.08Z"/><path class="cls-1" d="M316.09,95.92h9.25v3.41a10.47,10.47,0,0,1,8.87-4.18c2.51,0,5.78.45,8.22,2.89,2.7,2.7,2.89,6.11,2.89,8.42v18.11h-9.25V109.86c0-1.86-.06-4.24-1.54-5.71a4.84,4.84,0,0,0-3.53-1.29,5,5,0,0,0-3.86,1.54,7.34,7.34,0,0,0-1.8,5.46v14.71h-9.25Z"/><path class="cls-1" d="M361.76,139.28h-9.25V95.92h9.25v3.41A10.72,10.72,0,0,1,370.69,95,13.88,13.88,0,0,1,380.84,99a16.71,16.71,0,0,1-.25,22.67,12.73,12.73,0,0,1-9.7,3.86c-5.72,0-8.16-2.89-9.13-4.24Zm1.55-34.23a7.64,7.64,0,0,0-2.19,5.26,7.44,7.44,0,0,0,2.06,5.08,7.53,7.53,0,0,0,5.27,2.18,7.36,7.36,0,0,0,4.94-2,7.84,7.84,0,0,0,2.25-5.46,7.12,7.12,0,0,0-7.19-7.19A7.12,7.12,0,0,0,363.31,105.05Z"/><path class="cls-1" d="M390.93,95.92h9.25v4.5a10.25,10.25,0,0,1,3.59-4,8.84,8.84,0,0,1,5-1.22,9.32,9.32,0,0,1,3,.45l-.51,8.67a8.82,8.82,0,0,0-4.18-1,6.06,6.06,0,0,0-4.63,1.93c-2.05,2.18-2.24,5.27-2.24,7.71v11.62h-9.25Z"/><path class="cls-1" d="M420.86,78.32a5.4,5.4,0,1,1-5.4,5.4A5.34,5.34,0,0,1,420.86,78.32Zm4.62,17.6v28.65h-9.25V95.92Z"/><path class="cls-1" d="M433.32,95.92h9.25v3.41a10.46,10.46,0,0,1,8.86-4.18c2.51,0,5.78.45,8.23,2.89,2.69,2.7,2.89,6.11,2.89,8.42v18.11H453.3V109.86c0-1.86-.07-4.24-1.55-5.71a4.82,4.82,0,0,0-3.53-1.29,5,5,0,0,0-3.85,1.54,7.3,7.3,0,0,0-1.8,5.46v14.71h-9.25Z"/><path class="cls-1" d="M479.24,103.37v21.2H470v-21.2h-3.21V95.92H470V86.67h9.25v9.25H485v7.45Z"/><path class="cls-1" d="M494.21,78.32a5.4,5.4,0,1,1-5.39,5.4A5.35,5.35,0,0,1,494.21,78.32Zm4.63,17.6v28.65h-9.25V95.92Z"/><path class="cls-1" d="M506.67,95.92h9.25v3.41a10.47,10.47,0,0,1,8.87-4.18c2.5,0,5.78.45,8.22,2.89,2.7,2.7,2.89,6.11,2.89,8.42v18.11h-9.25V109.86c0-1.86-.06-4.24-1.54-5.71a4.86,4.86,0,0,0-3.54-1.29,5,5,0,0,0-3.85,1.54,7.34,7.34,0,0,0-1.8,5.46v14.71h-9.25Z"/><path class="cls-1" d="M564.87,95.92h9.25v26.92c0,4-.19,8.61-3.53,12.2-3.54,3.79-8.93,4.24-12.08,4.24-3.79,0-8.35-.57-12-3.66a12.75,12.75,0,0,1-4.3-7.58h10.08a4.75,4.75,0,0,0,2.06,2.83,7.58,7.58,0,0,0,4,1,6.55,6.55,0,0,0,4.63-1.54c1.79-1.73,1.86-4.75,1.86-6V121c-1.09,1.8-3.28,4.3-8.55,4.3a14.1,14.1,0,0,1-10.47-4,14.93,14.93,0,0,1-4.17-10.79,16.41,16.41,0,0,1,4.24-11.44A14.05,14.05,0,0,1,556.32,95c5.21,0,7.52,2.76,8.55,4.3Zm-11.5,8.93a7.9,7.9,0,0,0-2.18,5.33,7.54,7.54,0,0,0,2,5.14,6.86,6.86,0,0,0,5.2,2.06,7.11,7.11,0,0,0,5-1.86,7.58,7.58,0,0,0,2.25-5.46,7.23,7.23,0,0,0-2.19-5.27,7.73,7.73,0,0,0-5-1.8A7.53,7.53,0,0,0,553.37,104.85Z"/></g></g></svg>